<?xml version="1.0" encoding="utf-8"?>
<!-- Generator: Adobe Adobe Illustrator 24.2.0, SVG Export Plug-In . SVG Version: 6.00 Build 0)  -->
<svg version="1.1" id="Layer_1" xmlns="http://www.w3.org/2000/svg" xmlns:xlink="http://www.w3.org/1999/xlink" x="0px" y="0px"
	 width="24px" height="24px" viewBox="0 0 24 24" style="enable-background:new 0 0 24 24;" xml:space="preserve">
<style type="text/css">
	.st0{opacity:0.5294;fill:#FFFFFF;}
	.st1{fill:#6489FA;}
	.st2{opacity:0.6588;fill:#6489FA;}
</style>
<rect x="-0.13" y="-0.16" class="st0" width="24" height="24"/>
<path class="st1" d="M2.22,3.75L2.22,3.75c0-0.28,0.22-0.5,0.5-0.5h5c0.28,0,0.5,0.22,0.5,0.5v0c0,0.28-0.22,0.5-0.5,0.5h-5
	C2.44,4.25,2.22,4.03,2.22,3.75z"/>
<path class="st1" d="M2.22,6.05L2.22,6.05c0-0.28,0.22-0.5,0.5-0.5h1c0.28,0,0.5,0.22,0.5,0.5v0c0,0.28-0.22,0.5-0.5,0.5h-1
	C2.44,6.55,2.22,6.33,2.22,6.05z"/>
<path class="st1" d="M8.96,3.75L8.96,3.75c0-0.28,0.22-0.5,0.5-0.5h5c0.28,0,0.5,0.22,0.5,0.5v0c0,0.28-0.22,0.5-0.5,0.5h-5
	C9.18,4.25,8.96,4.03,8.96,3.75z"/>
<path class="st2" d="M15.7,3.75L15.7,3.75c0-0.28,0.22-0.5,0.5-0.5h1c0.28,0,0.5,0.22,0.5,0.5v0c0,0.28-0.22,0.5-0.5,0.5h-1
	C15.93,4.25,15.7,4.03,15.7,3.75z"/>
<path class="st1" d="M4.86,6.05L4.86,6.05c0-0.28,0.22-0.5,0.5-0.5h5c0.28,0,0.5,0.22,0.5,0.5v0c0,0.28-0.22,0.5-0.5,0.5h-5
	C5.08,6.55,4.86,6.33,4.86,6.05z"/>
<path class="st2" d="M19.1,3.75L19.1,3.75c0-0.28,0.22-0.5,0.5-0.5h2c0.28,0,0.5,0.22,0.5,0.5v0c0,0.28-0.22,0.5-0.5,0.5h-2
	C19.32,4.25,19.1,4.03,19.1,3.75z"/>
<path class="st2" d="M11.76,6.05L11.76,6.05c0-0.28,0.22-0.5,0.5-0.5h3.95c0.28,0,0.5,0.22,0.5,0.5v0c0,0.28-0.22,0.5-0.5,0.5h-3.95
	C11.98,6.55,11.76,6.33,11.76,6.05z"/>
<path class="st1" d="M11.52,8.23L11.52,8.23c0-0.28,0.22-0.5,0.5-0.5h1.47c0.28,0,0.5,0.22,0.5,0.5v0c0,0.28-0.22,0.5-0.5,0.5h-1.47
	C11.75,8.73,11.52,8.51,11.52,8.23z"/>
<path class="st1" d="M4.86,8.23L4.86,8.23c0-0.28,0.22-0.5,0.5-0.5h5c0.28,0,0.5,0.22,0.5,0.5v0c0,0.28-0.22,0.5-0.5,0.5h-5
	C5.08,8.73,4.86,8.51,4.86,8.23z"/>
<path class="st1" d="M11.7,10.73L11.7,10.73c0-0.28,0.22-0.5,0.5-0.5h5c0.28,0,0.5,0.22,0.5,0.5v0c0,0.28-0.22,0.5-0.5,0.5h-5
	C11.93,11.23,11.7,11.01,11.7,10.73z"/>
<path class="st2" d="M14.51,8.23L14.51,8.23c0-0.28,0.22-0.5,0.5-0.5h6.59c0.28,0,0.5,0.22,0.5,0.5v0c0,0.28-0.22,0.5-0.5,0.5h-6.59
	C14.74,8.73,14.51,8.51,14.51,8.23z"/>
<path class="st1" d="M2.22,10.73L2.22,10.73c0-0.28,0.22-0.5,0.5-0.5h5c0.28,0,0.5,0.22,0.5,0.5v0c0,0.28-0.22,0.5-0.5,0.5h-5
	C2.44,11.23,2.22,11.01,2.22,10.73z"/>
<path class="st1" d="M2.22,13.12L2.22,13.12c0-0.28,0.22-0.5,0.5-0.5h5c0.28,0,0.5,0.22,0.5,0.5v0c0,0.28-0.22,0.5-0.5,0.5h-5
	C2.44,13.62,2.22,13.4,2.22,13.12z"/>
<path class="st1" d="M2.22,15.62L2.22,15.62c0-0.28,0.22-0.5,0.5-0.5h5c0.28,0,0.5,0.22,0.5,0.5v0c0,0.28-0.22,0.5-0.5,0.5h-5
	C2.44,16.12,2.22,15.9,2.22,15.62z"/>
<path class="st1" d="M8.96,15.62L8.96,15.62c0-0.28,0.22-0.5,0.5-0.5h5c0.28,0,0.5,0.22,0.5,0.5v0c0,0.28-0.22,0.5-0.5,0.5h-5
	C9.18,16.12,8.96,15.9,8.96,15.62z"/>
<path class="st1" d="M4.86,17.94L4.86,17.94c0-0.28,0.22-0.5,0.5-0.5h4c0.28,0,0.5,0.22,0.5,0.5v0c0,0.28-0.22,0.5-0.5,0.5h-4
	C5.08,18.44,4.86,18.21,4.86,17.94z"/>
<path class="st1" d="M10.76,17.94L10.76,17.94c0-0.28,0.22-0.5,0.5-0.5h5c0.28,0,0.5,0.22,0.5,0.5v0c0,0.28-0.22,0.5-0.5,0.5h-5
	C10.98,18.44,10.76,18.21,10.76,17.94z"/>
<path class="st2" d="M10.99,20.25L10.99,20.25c0-0.28,0.22-0.5,0.5-0.5h5c0.28,0,0.5,0.22,0.5,0.5v0c0,0.28-0.22,0.5-0.5,0.5h-5
	C11.22,20.75,10.99,20.53,10.99,20.25z"/>
<path class="st1" d="M15.51,15.62L15.51,15.62c0-0.28,0.22-0.5,0.5-0.5h5c0.28,0,0.5,0.22,0.5,0.5v0c0,0.28-0.22,0.5-0.5,0.5h-5
	C15.74,16.12,15.51,15.9,15.51,15.62z"/>
<path class="st2" d="M18.1,10.73L18.1,10.73c0-0.28,0.22-0.5,0.5-0.5h2.75c0.28,0,0.5,0.22,0.5,0.5v0c0,0.28-0.22,0.5-0.5,0.5H18.6
	C18.32,11.23,18.1,11.01,18.1,10.73z"/>
<path class="st1" d="M2.22,20.25L2.22,20.25c0-0.28,0.22-0.5,0.5-0.5h5c0.28,0,0.5,0.22,0.5,0.5v0c0,0.28-0.22,0.5-0.5,0.5h-5
	C2.44,20.75,2.22,20.53,2.22,20.25z"/>
<path class="st2" d="M14.7,13.12L14.7,13.12c0-0.28,0.22-0.5,0.5-0.5h3c0.28,0,0.5,0.22,0.5,0.5v0c0,0.28-0.22,0.5-0.5,0.5h-3
	C14.93,13.62,14.7,13.4,14.7,13.12z"/>
<path class="st2" d="M19.1,13.12L19.1,13.12c0-0.28,0.22-0.5,0.5-0.5h1.41c0.28,0,0.5,0.22,0.5,0.5v0c0,0.28-0.22,0.5-0.5,0.5H19.6
	C19.32,13.62,19.1,13.4,19.1,13.12z"/>
<path class="st1" d="M2.22,8.23L2.22,8.23c0-0.28,0.22-0.5,0.5-0.5h1c0.28,0,0.5,0.22,0.5,0.5v0c0,0.28-0.22,0.5-0.5,0.5h-1
	C2.44,8.73,2.22,8.51,2.22,8.23z"/>
<path class="st1" d="M8.96,10.73L8.96,10.73c0-0.28,0.22-0.5,0.5-0.5h1c0.28,0,0.5,0.22,0.5,0.5v0c0,0.28-0.22,0.5-0.5,0.5h-1
	C9.18,11.23,8.96,11.01,8.96,10.73z"/>
<path class="st1" d="M8.96,13.12L8.96,13.12c0-0.28,0.22-0.5,0.5-0.5h1c0.28,0,0.5,0.22,0.5,0.5v0c0,0.28-0.22,0.5-0.5,0.5h-1
	C9.18,13.62,8.96,13.4,8.96,13.12z"/>
<path class="st1" d="M11.76,13.12L11.76,13.12c0-0.28,0.22-0.5,0.5-0.5h1c0.28,0,0.5,0.22,0.5,0.5v0c0,0.28-0.22,0.5-0.5,0.5h-1
	C11.98,13.62,11.76,13.4,11.76,13.12z"/>
<path class="st1" d="M8.46,20.25L8.46,20.25c0-0.28,0.22-0.5,0.5-0.5h1c0.28,0,0.5,0.22,0.5,0.5v0c0,0.28-0.22,0.5-0.5,0.5h-1
	C8.68,20.75,8.46,20.53,8.46,20.25z"/>
<path class="st1" d="M2.22,17.94L2.22,17.94c0-0.28,0.22-0.5,0.5-0.5h1c0.28,0,0.5,0.22,0.5,0.5v0c0,0.28-0.22,0.5-0.5,0.5h-1
	C2.44,18.44,2.22,18.21,2.22,17.94z"/>
</svg>
